<?xml version="1.0" standalone="no"?>
<!DOCTYPE svg PUBLIC "-//W3C//DTD SVG 20010904//EN"
 "http://www.w3.org/TR/2001/REC-SVG-20010904/DTD/svg10.dtd">
<svg version="1.0" xmlns="http://www.w3.org/2000/svg"
 width="250.000000pt" height="150.000000pt" viewBox="0 0 250.000000 150.000000"
 preserveAspectRatio="xMidYMid meet">

<g transform="translate(0.000000,150.000000) scale(0.100000,-0.100000)"
fill="#000000" stroke="none">
<path d="M760 735 l0 -195 85 0 85 0 0 30 c0 29 -2 30 -45 30 l-45 0 0 165 0
165 -40 0 -40 0 0 -195z"/>
<path d="M1007 919 c-37 -22 -47 -63 -47 -194 0 -126 0 -127 29 -156 25 -24
37 -29 81 -29 99 0 120 34 120 193 0 121 -11 162 -51 182 -32 17 -106 19 -132
4z m91 -186 l3 -133 -25 0 c-32 0 -36 14 -36 135 0 120 4 137 34 133 20 -3 21
-9 24 -135z"/>
<path d="M1275 906 c-31 -31 -38 -71 -33 -206 3 -108 4 -113 31 -136 33 -29
91 -32 119 -7 17 15 18 15 18 0 0 -12 9 -17 30 -17 l30 0 0 100 0 100 -55 0
c-52 0 -55 -1 -55 -25 0 -16 6 -25 15 -25 23 0 20 -76 -3 -89 -37 -20 -46 2
-50 113 -5 132 0 156 33 156 22 0 25 -4 25 -35 0 -35 0 -35 45 -35 49 0 51 3
34 62 -12 46 -49 68 -114 68 -35 0 -52 -6 -70 -24z"/>
<path d="M1567 919 c-37 -22 -47 -63 -47 -194 0 -126 0 -127 29 -156 25 -24
37 -29 81 -29 99 0 120 34 120 193 0 121 -11 162 -51 182 -32 17 -106 19 -132
4z m91 -186 l3 -133 -25 0 c-32 0 -36 14 -36 135 0 120 4 137 34 133 20 -3 21
-9 24 -135z"/>
</g>
</svg>
