<svg width="250" height="150" viewBox="0 0 250 150" fill="none" xmlns="http://www.w3.org/2000/svg">
<rect width="250" height="150" fill="white"/>
<path d="M75.4503 96V57.12H84.0423V90.192H92.9703V96H75.4503ZM107.258 96.576C104.346 96.576 102.042 96.064 100.346 95.04C98.6502 94.016 97.4342 92.544 96.6982 90.624C95.9622 88.704 95.5942 86.416 95.5942 83.76V69.312C95.5942 66.624 95.9622 64.336 96.6982 62.448C97.4342 60.56 98.6502 59.12 100.346 58.128C102.042 57.104 104.346 56.592 107.258 56.592C110.202 56.592 112.522 57.104 114.218 58.128C115.946 59.12 117.178 60.56 117.914 62.448C118.65 64.336 119.018 66.624 119.018 69.312V83.76C119.018 86.416 118.65 88.704 117.914 90.624C117.178 92.544 115.946 94.016 114.218 95.04C112.522 96.064 110.202 96.576 107.258 96.576ZM107.258 90.48C108.154 90.48 108.81 90.256 109.226 89.808C109.642 89.36 109.914 88.784 110.042 88.08C110.17 87.376 110.234 86.656 110.234 85.92V67.2C110.234 66.432 110.17 65.712 110.042 65.04C109.914 64.336 109.642 63.76 109.226 63.312C108.81 62.864 108.154 62.64 107.258 62.64C106.426 62.64 105.802 62.864 105.386 63.312C104.97 63.76 104.698 64.336 104.57 65.04C104.442 65.712 104.378 66.432 104.378 67.2V85.92C104.378 86.656 104.426 87.376 104.522 88.08C104.65 88.784 104.906 89.36 105.29 89.808C105.706 90.256 106.362 90.48 107.258 90.48ZM134.375 96.576C131.687 96.576 129.559 96.016 127.991 94.896C126.455 93.776 125.351 92.208 124.679 90.192C124.039 88.144 123.719 85.792 123.719 83.136V70.08C123.719 67.328 124.071 64.944 124.775 62.928C125.479 60.912 126.679 59.36 128.375 58.272C130.103 57.152 132.439 56.592 135.383 56.592C138.263 56.592 140.519 57.072 142.151 58.032C143.815 58.992 144.999 60.32 145.703 62.016C146.407 63.712 146.759 65.696 146.759 67.968V70.464H138.359V67.296C138.359 66.464 138.295 65.696 138.167 64.992C138.071 64.288 137.815 63.728 137.399 63.312C137.015 62.864 136.375 62.64 135.479 62.64C134.551 62.64 133.879 62.896 133.463 63.408C133.047 63.888 132.775 64.496 132.647 65.232C132.551 65.968 132.503 66.736 132.503 67.536V85.536C132.503 86.4 132.583 87.216 132.743 87.984C132.935 88.72 133.255 89.328 133.703 89.808C134.183 90.256 134.855 90.48 135.719 90.48C136.615 90.48 137.303 90.24 137.783 89.76C138.263 89.28 138.599 88.656 138.791 87.888C138.983 87.12 139.079 86.304 139.079 85.44V80.88H135.575V75.84H146.807V96H141.143L140.663 92.784C140.151 93.872 139.399 94.784 138.407 95.52C137.415 96.224 136.071 96.576 134.375 96.576ZM163.321 96.576C160.409 96.576 158.105 96.064 156.409 95.04C154.713 94.016 153.497 92.544 152.761 90.624C152.025 88.704 151.657 86.416 151.657 83.76V69.312C151.657 66.624 152.025 64.336 152.761 62.448C153.497 60.56 154.713 59.12 156.409 58.128C158.105 57.104 160.409 56.592 163.321 56.592C166.265 56.592 168.585 57.104 170.281 58.128C172.009 59.12 173.241 60.56 173.977 62.448C174.713 64.336 175.081 66.624 175.081 69.312V83.76C175.081 86.416 174.713 88.704 173.977 90.624C173.241 92.544 172.009 94.016 170.281 95.04C168.585 96.064 166.265 96.576 163.321 96.576ZM163.321 90.48C164.217 90.48 164.873 90.256 165.289 89.808C165.705 89.36 165.977 88.784 166.105 88.08C166.233 87.376 166.297 86.656 166.297 85.92V67.2C166.297 66.432 166.233 65.712 166.105 65.04C165.977 64.336 165.705 63.76 165.289 63.312C164.873 62.864 164.217 62.64 163.321 62.64C162.489 62.64 161.865 62.864 161.449 63.312C161.033 63.76 160.761 64.336 160.633 65.04C160.505 65.712 160.441 66.432 160.441 67.2V85.92C160.441 86.656 160.489 87.376 160.585 88.08C160.713 88.784 160.969 89.36 161.353 89.808C161.769 90.256 162.425 90.48 163.321 90.48Z" fill="#3C3C3C"/>
</svg>
